####
#
# OBJ File Generated by Meshlab
#
####
# Object bunny.obj
#
# Vertices: 152
# Faces: 300
#
####
vn 4.974199 2.556485 1.952616
v 30.735929 49.422333 12.397314
vn 3.752616 4.177399 1.357663
v -28.520554 83.676659 9.370834
vn 3.922250 2.784276 -3.135745
v 21.980957 69.516472 -5.966425
vn 2.920429 1.283086 2.410930
v 37.365910 42.133198 17.024462
vn -2.598980 -4.283778 -0.291065
v -0.011111 22.087631 7.914763
vn 1.666324 -5.614655 -0.653253
v -21.018805 21.729897 7.419645
vn 1.866474 -1.144540 5.625383
v 7.157368 27.259262 28.497650
vn -4.470135 1.725137 0.770005
v -33.686283 31.080029 9.194893
vn -1.309825 2.545079 -3.371263
v -14.300038 59.373985 -23.988308
vn -3.706475 0.227208 -3.822244
v -51.423580 59.663723 -7.956351
vn 5.116934 1.144845 3.175022
v -34.444443 88.473480 19.268187
vn -5.935562 0.058917 -0.766914
v -59.965435 84.449966 10.631787
vn 1.855903 2.740203 4.988222
v 10.629569 62.886883 31.498587
vn 3.368365 -2.040936 -4.510097
v 23.214458 33.768520 -5.272071
vn 2.601872 -3.070109 -2.133603
v -41.563408 100.557838 -31.825975
vn -1.853208 0.702660 -2.671252
v -20.860725 33.727394 -5.939876
vn 0.354628 -5.814897 -1.203910
v -14.538491 22.384134 29.106337
vn -5.123317 1.335931 -3.302301
v -55.840031 91.595642 3.836957
vn 3.158326 -1.811950 -4.172845
v 15.058620 33.508320 -16.092569
vn 1.903726 -4.533400 -1.019728
v 9.958454 22.020512 -9.378322
vn 0.264761 -4.665576 -2.226352
v -12.281285 25.382496 26.235357
vn 3.947953 2.851206 2.280652
v 22.694336 72.542168 18.208805
vn 3.384994 -0.784775 -4.330971
v -41.809841 91.685951 -4.898181
vn 0.058282 2.992146 3.555684
v -47.664249 95.128899 28.621954
vn -0.331098 5.703638 0.339733
v -1.457151 85.387390 9.800146
vn -1.035892 -6.007991 0.601865
v -2.542096 24.726263 11.857349
vn 3.993563 1.602471 4.546306
v -41.144970 89.812813 25.036091
vn -0.597451 4.086900 3.808450
v -5.222840 79.771484 22.630266
vn -2.642387 0.201632 -4.888445
v -14.704127 113.149040 -13.797762
vn 0.506276 -2.788320 3.283855
v -47.087704 72.089058 31.914562
vn 2.270931 1.629425 4.888562
v -34.763802 74.550812 22.317438
vn -1.478013 1.204657 -0.117718
v -48.698116 116.087112 -33.439255
vn 1.481809 5.007478 -1.726362
v 8.779086 83.323761 -0.143646
vn -1.078733 2.990239 -4.966271
v -34.571465 74.928246 -9.935619
vn 3.385670 -0.174132 4.428484
v -40.855453 78.382095 30.256414
vn -2.101332 0.753888 -5.356211
v -23.012455 58.139984 -15.358739
vn -1.958989 -1.619663 1.435853
v -41.376007 22.257421 27.246241
vn -0.389429 -1.048355 -5.915853
v -12.816500 28.929724 -18.308392
vn 1.416380 -3.889184 -3.252102
v 6.607945 22.746683 -14.305001
vn -2.566024 4.465668 -0.092526
v -48.919842 100.120338 -0.611014
vn -3.412828 2.611736 0.847786
v -41.260101 29.345703 23.784473
vn 1.509522 -2.676336 2.729694
v 10.485230 22.737043 27.926563
vn -1.067454 2.448852 4.395734
v -9.047743 61.051147 36.402843
vn 1.441259 4.522568 2.215196
v -44.737354 106.852379 -11.531954
vn 1.645666 3.170785 5.029186
v 11.251105 71.842415 25.007153
vn 2.294841 3.526619 -4.008758
v -31.684729 83.483376 -2.249613
vn -5.561761 -1.595305 -2.282086
v -46.251972 107.458443 -29.261185
vn -3.124074 2.764243 -0.967028
v -34.482731 105.838280 -0.904860
vn -4.305196 -2.754443 -2.109935
v -52.273956 48.733124 -1.698501
vn 1.703910 -5.576419 -1.232703
v 13.746151 22.899647 -0.255971
vn -1.446164 -4.983066 0.926761
v 3.310594 25.295729 -6.935895
vn 0.250188 3.478036 -5.036225
v -2.807467 64.792091 -15.336499
vn -2.839190 3.420067 3.480813
v -32.428795 32.997711 22.864403
vn -3.871896 1.118022 -3.849649
v -17.452818 32.478127 -15.294721
vn 2.533060 1.113200 -1.722745
v 38.926174 42.801563 1.101391
vn -2.960441 0.237426 3.913283
v -15.005248 52.945507 36.284737
vn 1.177883 -2.270491 4.874708
v 4.244316 33.767605 34.757092
vn 2.944534 -1.017752 5.200891
v 24.062075 36.392017 22.580072
vn 0.717776 2.250097 2.784908
v -23.112316 112.001259 -0.202094
vn 0.010434 5.220886 -3.068860
v -17.093695 79.022377 -5.159962
vn -1.253908 -0.995019 -5.148344
v -12.985169 45.018379 -25.308521
vn -1.167174 -0.081175 5.719532
v -9.319017 32.395782 32.621670
vn 0.513787 -5.866704 0.193167
v 10.148165 22.263165 21.982246
vn 4.305150 0.338059 -3.792084
v 23.995718 53.219429 -10.523120
vn -0.046587 -6.278674 0.231757
v -29.926361 21.929142 10.014009
vn -5.727483 -0.567797 -1.088799
v -57.748619 70.952629 7.840274
vn -0.670720 -3.217161 3.137911
v -25.685633 22.702114 28.082819
vn -2.400028 -1.969535 -4.514251
v -46.714359 90.795685 -5.552975
vn 0.980593 -4.151096 -3.483083
v -13.405577 103.412605 -9.045307
vn 1.063674 -6.131686 -0.009688
v -14.241027 24.450705 11.384613
vn -1.230683 0.845315 3.625767
v -17.680620 34.974712 23.168861
vn -2.877439 -2.457675 -4.512533
v -34.075584 39.962505 -5.799917
vn 1.876457 0.191766 -5.411151
v -36.549881 94.414787 -1.009021
vn 1.964777 2.213865 -4.943769
v 8.168513 59.002254 -19.102304
vn -0.451580 -1.268814 5.908751
v -28.539286 46.990448 27.424356
vn -2.106975 -1.238385 -0.473059
v -47.002476 21.818407 2.487439
vn -0.241794 2.708021 -5.447751
v -21.206190 70.790894 -12.762960
vn -4.812242 -0.331762 0.932026
v -59.319118 60.521858 12.109985
vn 0.494733 -4.185403 -2.909299
v -7.860329 21.820986 -15.438112
vn 0.420207 -0.023561 -1.047415
v -39.981781 109.356949 -40.726486
vn 5.417444 1.078714 0.648400
v -39.896458 105.388283 -22.147951
vn 1.613760 4.227682 2.558842
v 10.191161 81.918205 19.079792
vn -2.753241 -2.090269 0.395466
v -41.177540 22.089064 14.116126
vn -3.245012 -2.132658 1.847614
v -58.303707 73.387772 27.279533
vn -4.217361 -3.062098 1.866629
v -52.424202 47.625755 15.766313
vn 1.199932 3.362302 -4.273365
v 7.986984 75.953773 -10.737052
vn 1.810879 0.090110 4.755475
v 30.064476 36.889698 21.272560
vn 3.962118 0.991497 4.025515
v 21.901840 58.346809 26.656395
vn -0.771966 0.727782 3.881178
v -36.237373 26.477001 30.395021
vn 2.219129 0.306616 5.348178
v 8.387766 52.162987 35.888763
vn -3.842000 -0.749962 -3.469714
v -55.898888 79.471123 -1.494353
vn -2.979021 2.572514 -0.168301
v -45.320065 28.248037 3.395253
vn 0.656679 -6.198190 0.052171
v -22.908072 22.356958 22.345619
vn 1.457463 0.728472 -5.694740
v -1.391083 53.297619 -23.967033
vn 2.441485 3.840000 -2.041351
v -41.089851 97.847313 -1.492696
vn -3.507230 3.286962 -2.562208
v -26.791109 28.356901 -14.584122
vn 0.303797 3.785888 4.924870
v 1.466833 66.980194 28.711891
vn -2.335817 -2.605629 3.717185
v -48.950706 69.111084 22.804777
vn 3.384105 3.978802 -0.145276
v -42.357876 114.144508 -34.770798
vn -0.667151 4.660280 3.994540
v -19.466349 76.317116 19.825596
vn -0.950460 -0.936431 -1.913544
v -25.385509 22.014704 -20.534725
vn -1.716959 1.778183 4.182374
v -17.796089 29.109068 33.534184
vn -2.262148 1.218244 -5.482634
v -44.321442 74.354424 -6.413595
vn -3.693222 1.662218 -3.808201
v -37.230236 28.827391 -4.329236
vn 2.022554 -5.373651 -0.247954
v 24.400497 23.562010 6.958717
vn -0.272336 0.543754 5.660644
v -36.783657 59.441704 29.589165
vn 2.594600 2.244816 -5.127474
v 15.098733 64.068542 -12.918792
vn -4.467568 -0.520184 -3.348492
v -20.305492 49.306538 -20.781441
vn -2.569250 -0.441101 4.658303
v -46.167007 57.061424 27.727621
vn 2.782391 -2.545388 -2.911194
v 32.367981 30.244555 -1.266330
vn -3.703166 2.401094 -0.372129
v -59.422173 96.810776 10.793102
vn -1.659688 -2.906363 -2.013587
v -31.630468 21.681435 -8.241505
vn -1.089628 2.184741 5.263397
v -25.635071 30.547764 25.346596
vn -4.312012 1.669600 2.822277
v -57.001347 86.527992 28.714115
vn 3.280051 1.595372 4.382915
v -19.535368 107.821373 -4.857585
vn -1.680542 2.804308 5.173933
v -14.746547 66.033936 28.566034
vn -0.114579 2.140320 5.721233
v -25.271048 67.028793 26.549425
vn -2.994944 2.761706 -4.146892
v -28.588917 28.918648 -7.783560
vn 3.967533 -2.636157 1.363210
v 36.615780 31.971592 13.311358
vn 1.836115 -0.545899 0.933411
v -9.581016 103.771500 -5.185238
vn 3.913972 4.284674 -0.672234
v 19.686745 77.436012 4.761111
vn 0.474103 -5.970169 1.000885
v -21.424864 21.687958 -14.512793
vn -1.526624 5.027550 1.563999
v -50.493279 100.237762 18.029438
vn -0.831941 -0.484936 -5.538735
v -33.630966 57.411602 -15.240288
vn 3.105605 -4.502031 2.889564
v 18.214418 25.990057 18.884218
vn -1.984147 -2.734317 -4.261093
v -42.632950 47.532665 -10.271157
vn 3.937771 0.660251 4.377172
v -31.169352 98.925789 6.582538
vn -5.440811 0.733873 -2.500586
v -49.843716 95.602356 -2.295663
vn -0.001262 -0.511572 5.990554
v -2.245976 46.914001 37.716679
vn 0.290883 0.938668 0.026054
v -11.951091 120.886047 -11.386025
vn -2.636469 -4.733068 -0.081617
v -44.311142 38.452492 7.355413
vn 0.243536 -4.911960 2.352903
v -16.793592 24.907734 -11.321550
vn 0.134486 5.625241 1.818881
v -34.942417 100.079880 7.751380
vn 5.360427 1.722276 -0.934419
v 28.861971 62.973106 2.510493
vn 1.935044 -3.946871 3.376527
v 26.233877 27.521255 17.875481
vn 2.678710 2.886260 2.113709
v -36.063278 98.722557 19.263330
vn -3.388631 -2.933422 3.683805
v -33.015820 40.520218 21.293184
vn -0.626095 0.893627 -0.392617
v -48.066730 116.909546 -35.155125
vn 5.247475 -1.044756 0.020008
v -31.509218 93.142357 4.389511
vn -2.275782 0.055841 5.354146
v -20.478075 54.332935 27.404274
vn -4.475124 -3.277619 0.834210
v -35.148285 35.920174 8.223735
vn -1.889424 -3.350312 3.925653
v -41.161598 45.039566 24.747444
vn -0.077717 -2.458736 3.141704
v -13.264563 22.713591 34.127419
vn -0.917371 0.612665 4.532295
v -51.841415 83.422386 34.095585
vn -0.160469 6.037403 0.988239
v -17.989254 80.947098 10.100415
vn -1.015122 -0.159072 -6.084554
v -29.281542 33.659729 -6.530483
vn 4.467266 2.480520 -2.490259
v 30.384451 47.912498 4.570952
vn 1.095919 -1.933611 -5.756652
v 4.144448 31.989281 -18.838791
vn -1.893516 -2.602624 -1.654450
v -46.086849 97.606483 -28.201752
vn -1.776810 -4.411617 -0.623138
v 5.324419 25.407917 20.583574
vn 0.399456 0.104739 -0.357877
v -5.640737 114.364922 -18.132929
vn 1.794081 -5.601358 -0.162180
v -25.033892 24.118048 -5.034668
# 152 vertices, 0 vertices normals

f 130//130 59//59 115//115
f 149//149 68//68 128//128
f 136//136 133//133 123//123
f 41//41 37//37 89//89
f 151//151 120//120 69//69
f 83//83 92//92 76//76
f 18//18 111//111 40//40
f 92//92 83//83 8//8
f 32//32 138//138 47//47
f 39//39 38//38 148//148
f 126//126 10//10 124//124
f 24//24 136//136 123//123
f 62//62 143//143 7//7
f 24//24 27//27 136//136
f 126//126 131//131 49//49
f 29//29 130//130 151//151
f 115//115 151//151 130//130
f 88//88 57//57 58//58
f 123//123 114//114 24//24
f 121//121 22//22 134//134
f 59//59 133//133 127//127
f 119//119 4//4 87//87
f 149//149 23//23 68//68
f 113//113 53//53 89//89
f 89//89 53//53 41//41
f 57//57 90//90 129//129
f 18//18 128//128 91//91
f 13//13 43//43 90//90
f 50//50 105//105 63//63
f 94//94 61//61 9//9
f 6//6 93//93 65//65
f 142//142 75//75 106//106
f 142//142 137//137 75//75
f 28//28 82//82 25//25
f 145//145 2//2 100//100
f 140//140 56//56 43//43
f 150//150 5//5 63//63
f 29//29 151//151 69//69
f 108//108 36//36 9//9
f 58//58 87//87 1//1
f 143//143 67//67 17//17
f 7//7 42//42 58//58
f 93//93 83//83 65//65
f 126//126 49//49 10//10
f 146//146 72//72 36//36
f 140//140 62//62 56//56
f 96//96 118//118 16//16
f 52//52 107//107 74//74
f 88//88 45//45 13//13
f 81//81 44//44 95//95
f 17//17 21//21 63//63
f 2//2 145//145 60//60
f 51//51 26//26 132//132
f 38//38 108//108 61//61
f 36//36 124//124 77//77
f 67//67 113//113 89//89
f 140//140 116//116 117//117
f 39//39 20//20 79//79
f 138//138 99//99 80//80
f 48//48 95//95 133//133
f 71//71 113//113 102//102
f 97//97 13//13 45//45
f 46//46 103//103 23//23
f 72//72 146//146 104//104
f 46//46 2//2 60//60
f 110//110 105//105 50//50
f 18//18 40//40 128//128
f 98//98 66//66 78//78
f 7//7 58//58 57//57
f 139//139 2//2 46//46
f 31//31 106//106 117//117
f 118//118 104//104 146//146
f 109//109 85//85 142//142
f 32//32 128//128 40//40
f 110//110 14//14 55//55
f 58//58 1//1 88//88
f 52//52 36//36 77//77
f 38//38 54//54 108//108
f 43//43 97//97 116//116
f 134//134 64//64 3//3
f 67//67 37//37 93//93
f 45//45 88//88 22//22
f 31//31 117//117 100//100
f 38//38 39//39 79//79
f 14//14 19//19 64//64
f 66//66 10//10 78//78
f 152//152 6//6 112//112
f 26//26 70//70 132//132
f 32//32 44//44 99//99
f 137//137 53//53 113//113
f 2//2 139//139 11//11
f 36//36 16//16 146//146
f 143//143 63//63 42//42
f 11//11 35//35 31//31
f 114//114 12//12 84//84
f 82//82 22//22 121//121
f 15//15 95//95 23//23
f 4//4 1//1 87//87
f 57//57 62//62 7//7
f 38//38 79//79 101//101
f 46//46 77//77 34//34
f 68//68 91//91 128//128
f 61//61 148//148 38//38
f 123//123 40//40 111//111
f 25//25 82//82 33//33
f 143//143 62//62 102//102
f 50//50 63//63 5//5
f 122//122 112//112 101//101
f 36//36 108//108 16//16
f 144//144 30//30 35//35
f 144//144 114//114 84//84
f 64//64 107//107 3//3
f 134//134 147//147 64//64
f 119//119 87//87 135//135
f 32//32 40//40 44//44
f 71//71 62//62 140//140
f 149//149 128//128 47//47
f 122//122 152//152 112//112
f 37//37 41//41 83//83
f 68//68 103//103 91//91
f 23//23 73//73 46//46
f 12//12 18//18 91//91
f 55//55 1//1 4//4
f 95//95 15//15 81//81
f 103//103 46//46 34//34
f 60//60 145//145 25//25
f 152//152 132//132 70//70
f 6//6 65//65 76//76
f 143//143 17//17 63//63
f 53//53 141//141 8//8
f 60//60 33//33 86//86
f 85//85 49//49 131//131
f 8//8 141//141 104//104
f 79//79 20//20 122//122
f 74//74 9//9 52//52
f 40//40 133//133 95//95
f 130//130 29//29 48//48
f 115//115 127//127 120//120
f 56//56 62//62 129//129
f 81//81 80//80 99//99
f 30//30 144//144 84//84
f 101//101 79//79 122//122
f 39//39 148//148 19//19
f 78//78 10//10 49//49
f 96//96 112//112 118//118
f 124//124 34//34 77//77
f 49//49 85//85 78//78
f 11//11 136//136 27//27
f 120//120 127//127 139//139
f 132//132 122//122 20//20
f 94//94 19//19 148//148
f 116//116 28//28 100//100
f 28//28 97//97 82//82
f 50//50 14//14 110//110
f 25//25 145//145 28//28
f 51//51 132//132 20//20
f 110//110 119//119 105//105
f 60//60 86//86 77//77
f 75//75 140//140 117//117
f 33//33 82//82 121//121
f 93//93 70//70 21//21
f 142//142 106//106 109//109
f 59//59 48//48 133//133
f 10//10 34//34 124//124
f 15//15 23//23 149//149
f 73//73 48//48 29//29
f 119//119 135//135 105//105
f 58//58 42//42 125//125
f 74//74 107//107 64//64
f 102//102 113//113 67//67
f 125//125 105//105 135//135
f 1//1 55//55 147//147
f 139//139 136//136 11//11
f 101//101 96//96 54//54
f 97//97 43//43 13//13
f 137//137 113//113 75//75
f 90//90 57//57 88//88
f 18//18 12//12 111//111
f 101//101 112//112 96//96
f 37//37 83//83 93//93
f 106//106 98//98 109//109
f 98//98 31//31 30//30
f 68//68 23//23 103//103
f 144//144 35//35 24//24
f 141//141 72//72 104//104
f 104//104 118//118 112//112
f 140//140 75//75 113//113
f 93//93 6//6 70//70
f 106//106 75//75 117//117
f 66//66 12//12 91//91
f 60//60 25//25 33//33
f 1//1 147//147 134//134
f 3//3 86//86 33//33
f 40//40 95//95 44//44
f 66//66 98//98 84//84
f 137//137 141//141 53//53
f 6//6 152//152 70//70
f 5//5 26//26 51//51
f 150//150 63//63 21//21
f 135//135 87//87 125//125
f 48//48 59//59 130//130
f 55//55 119//119 110//110
f 14//14 64//64 147//147
f 78//78 109//109 98//98
f 9//9 74//74 94//94
f 7//7 143//143 42//42
f 52//52 77//77 86//86
f 22//22 88//88 1//1
f 35//35 30//30 31//31
f 46//46 73//73 139//139
f 16//16 108//108 54//54
f 17//17 67//67 93//93
f 69//69 139//139 73//73
f 5//5 20//20 50//50
f 144//144 24//24 114//114
f 145//145 100//100 28//28
f 80//80 15//15 149//149
f 103//103 10//10 66//66
f 17//17 93//93 21//21
f 2//2 11//11 31//31
f 111//111 12//12 114//114
f 95//95 48//48 73//73
f 36//36 52//52 9//9
f 47//47 138//138 80//80
f 98//98 30//30 84//84
f 78//78 85//85 109//109
f 150//150 21//21 26//26
f 116//116 97//97 28//28
f 3//3 33//33 121//121
f 98//98 106//106 31//31
f 86//86 107//107 52//52
f 22//22 82//82 45//45
f 83//83 41//41 8//8
f 11//11 27//27 35//35
f 116//116 100//100 117//117
f 136//136 139//139 127//127
f 107//107 86//86 3//3
f 54//54 38//38 101//101
f 19//19 14//14 50//50
f 27//27 24//24 35//35
f 71//71 140//140 113//113
f 82//82 97//97 45//45
f 76//76 104//104 112//112
f 20//20 5//5 51//51
f 76//76 92//92 104//104
f 31//31 100//100 2//2
f 142//142 85//85 131//131
f 34//34 10//10 103//103
f 20//20 19//19 50//50
f 62//62 57//57 129//129
f 19//19 20//20 39//39
f 125//125 87//87 58//58
f 73//73 23//23 95//95
f 40//40 123//123 133//133
f 32//32 47//47 128//128
f 142//142 131//131 141//141
f 90//90 88//88 13//13
f 67//67 143//143 102//102
f 43//43 56//56 129//129
f 1//1 134//134 22//22
f 66//66 91//91 103//103
f 150//150 26//26 5//5
f 14//14 147//147 55//55
f 140//140 43//43 116//116
f 122//122 132//132 152//152
f 63//63 105//105 125//125
f 61//61 94//94 148//148
f 133//133 136//136 127//127
f 124//124 72//72 126//126
f 118//118 146//146 16//16
f 32//32 99//99 138//138
f 73//73 29//29 69//69
f 131//131 72//72 141//141
f 81//81 99//99 44//44
f 124//124 36//36 72//72
f 55//55 4//4 119//119
f 76//76 112//112 6//6
f 126//126 72//72 131//131
f 64//64 19//19 74//74
f 37//37 67//67 89//89
f 63//63 125//125 42//42
f 137//137 142//142 141//141
f 15//15 80//80 81//81
f 83//83 76//76 65//65
f 108//108 9//9 61//61
f 90//90 43//43 129//129
f 71//71 102//102 62//62
f 127//127 115//115 59//59
f 3//3 121//121 134//134
f 41//41 53//53 8//8
f 26//26 21//21 70//70
f 123//123 111//111 114//114
f 8//8 104//104 92//92
f 54//54 96//96 16//16
f 47//47 80//80 149//149
f 120//120 151//151 115//115
f 84//84 12//12 66//66
f 77//77 46//46 60//60
f 94//94 74//74 19//19
f 120//120 139//139 69//69
# 300 faces, 0 coords texture

# End of File
