<?xml version="1.0" encoding="UTF-8" standalone="no"?>
<!-- Created with Inkscape (http://www.inkscape.org/) -->

<svg
   width="24"
   height="24"
   viewBox="0 0 6.3499999 6.35"
   version="1.1"
   id="svg5"
   inkscape:version="1.2.2 (732a01da63, 2022-12-09)"
   sodipodi:docname="2DCanvas.svg"
   xml:space="preserve"
   xmlns:inkscape="http://www.inkscape.org/namespaces/inkscape"
   xmlns:sodipodi="http://sodipodi.sourceforge.net/DTD/sodipodi-0.dtd"
   xmlns="http://www.w3.org/2000/svg"
   xmlns:svg="http://www.w3.org/2000/svg"><sodipodi:namedview
     id="namedview7"
     pagecolor="#ffffff"
     bordercolor="#000000"
     borderopacity="0.25"
     inkscape:showpageshadow="2"
     inkscape:pageopacity="0.0"
     inkscape:pagecheckerboard="0"
     inkscape:deskcolor="#d1d1d1"
     inkscape:document-units="mm"
     showgrid="false"
     inkscape:zoom="17.396097"
     inkscape:cx="0.48861535"
     inkscape:cy="6.3807416"
     inkscape:window-width="1920"
     inkscape:window-height="1017"
     inkscape:window-x="-8"
     inkscape:window-y="-8"
     inkscape:window-maximized="1"
     inkscape:current-layer="layer1" /><defs
     id="defs2" /><g
     inkscape:label="Layer 1"
     inkscape:groupmode="layer"
     id="layer1"><path
       style="fill:#000000;stroke-width:0.0296765"
       d="M 3.1701342,6.3321712 C 3.1456512,6.3233312 3.1022492,6.2957412 3.0736852,6.2708582 3.0259142,6.2292422 3.0217512,6.1344094 3.0217512,5.0876726 V 3.9497289 h -0.192897 c -0.1060933,0 -0.1928969,0.011899 -0.1928969,0.026442 0,0.072288 -0.7809885,1.7761004 -0.8346668,1.8209175 -0.1280356,0.1068993 -0.322715,0.020312 -0.322715,-0.1435326 0,-0.042218 0.1549205,-0.4261574 0.3442678,-0.853198 0.1893473,-0.4270406 0.3510289,-0.7931305 0.3592925,-0.813533 0.011808,-0.029153 -0.1635696,-0.037096 -0.8190911,-0.037096 -0.79454723,0 -0.83693143,-0.00282 -0.89346873,-0.059353 -0.1254381,-0.1254377 -0.023277,-0.3561173 0.1577141,-0.3561173 h 0.079697 V 2.1988183 0.86337783 h -0.087873 c -0.179824,0 -0.2720254,-0.21780629 -0.1483823,-0.35052162 0.06039,-0.0648208 0.062962,-0.0649487 1.30576413,-0.0649487 H 3.021751 v -0.1417791 c 0,-0.183629 0.061791,-0.273838 0.1871605,-0.2732368 0.052121,2.492e-4 0.1094595,0.010266 0.1274188,0.022257 0.060027,0.040081 0.1008911,0.15029029 0.1008911,0.2721018 v 0.12065677 h 1.2315729 c 1.1920044,0 1.2334799,0.001907 1.2909258,0.0593529 0.1225585,0.12255853 0.034974,0.35611744 -0.133544,0.35611744 H 5.7519851 V 2.1988183 3.5342585 h 0.074191 c 0.1007346,0 0.1928969,0.099252 0.1928969,0.2077352 0,0.049461 -0.026379,0.1154085 -0.059353,0.1483823 -0.056475,0.056475 -0.098921,0.059353 -0.8754554,0.059353 -0.4488564,0 -0.8161026,0.011084 -0.8161026,0.024631 0,0.013547 0.1616756,0.3907552 0.3592792,0.8382402 0.3886818,0.8801941 0.3956828,0.910987 0.2284592,1.0048474 -0.059249,0.033256 -0.1002643,0.03712 -0.1628288,0.015341 C 4.6182146,5.8067306 4.5662365,5.7064372 4.1975701,4.8767026 L 3.7856995,3.9497289 H 3.6114608 3.4372223 v 1.1244176 c 0,1.0282087 -0.00444,1.1295565 -0.051934,1.1844793 -0.058018,0.067098 -0.1479051,0.097824 -0.2151541,0.073545 z M 5.3365155,2.1988183 V 0.86337783 H 3.2294871 1.1224587 V 2.1988183 3.5342585 h 2.1070284 2.1070284 z"
       id="path412" /><path
       style="fill:#ffffff;stroke:#000000;stroke-width:0.0651789;stroke-linecap:round;stroke-linejoin:round"
       d="m 4.0699233,3.0510391 c -0.229806,0.3674181 -0.050601,0.8463415 -0.1071091,1.2602728 0,3.0083376 0,6.0166751 0,9.0250131 0.104227,0.474203 0.6952222,0.233022 1.0383076,0.291013 5.0394452,0 10.0788892,0 15.1183342,0 0.474203,-0.104226 0.233022,-0.695222 0.291013,-1.038307 0,-3.1041448 0,-6.2082894 0,-9.312434 -0.104227,-0.4742035 -0.695222,-0.2330224 -1.038308,-0.2910135 -5.039444,0 -10.0788887,0 -15.1183333,0 -0.061301,0.021818 -0.1226029,0.043637 -0.1839044,0.065456 z"
       id="path303"
       transform="scale(0.26458333)" /></g></svg>
