<?xml version="1.0" encoding="UTF-8" standalone="no"?>
<!-- Created with Inkscape (http://www.inkscape.org/) -->

<svg
   width="24"
   height="24"
   viewBox="0 0 6.3499999 6.35"
   version="1.1"
   id="svg5"
   inkscape:version="1.2.2 (732a01da63, 2022-12-09)"
   sodipodi:docname="3DCanvas.svg"
   xml:space="preserve"
   xmlns:inkscape="http://www.inkscape.org/namespaces/inkscape"
   xmlns:sodipodi="http://sodipodi.sourceforge.net/DTD/sodipodi-0.dtd"
   xmlns="http://www.w3.org/2000/svg"
   xmlns:svg="http://www.w3.org/2000/svg"><sodipodi:namedview
     id="namedview7"
     pagecolor="#ffffff"
     bordercolor="#000000"
     borderopacity="0.25"
     inkscape:showpageshadow="2"
     inkscape:pageopacity="0.0"
     inkscape:pagecheckerboard="0"
     inkscape:deskcolor="#d1d1d1"
     inkscape:document-units="mm"
     showgrid="false"
     inkscape:zoom="12.300898"
     inkscape:cx="-5.649994"
     inkscape:cy="9.7553853"
     inkscape:window-width="1920"
     inkscape:window-height="1017"
     inkscape:window-x="-8"
     inkscape:window-y="-8"
     inkscape:window-maximized="1"
     inkscape:current-layer="layer1" /><defs
     id="defs2" /><g
     inkscape:label="Layer 1"
     inkscape:groupmode="layer"
     id="layer1"><path
       style="fill:#000000;stroke-width:0.0296765"
       d="M 3.1701342,6.3321712 C 3.1456512,6.3233312 3.1022492,6.2957412 3.0736852,6.2708582 3.0259142,6.2292422 3.0217512,6.1344094 3.0217512,5.0876726 V 3.9497289 h -0.192897 c -0.1060933,0 -0.1928969,0.011899 -0.1928969,0.026442 0,0.072288 -0.7809885,1.7761004 -0.8346668,1.8209175 -0.1280356,0.1068993 -0.322715,0.020312 -0.322715,-0.1435326 0,-0.042218 0.1549205,-0.4261574 0.3442678,-0.853198 0.1893473,-0.4270406 0.3510289,-0.7931305 0.3592925,-0.813533 0.011808,-0.029153 -0.1635696,-0.037096 -0.8190911,-0.037096 -0.79454723,0 -0.83693143,-0.00282 -0.89346873,-0.059353 -0.1254381,-0.1254377 -0.023277,-0.3561173 0.1577141,-0.3561173 h 0.079697 V 2.1988183 0.86337783 h -0.087873 c -0.179824,0 -0.2720254,-0.21780629 -0.1483823,-0.35052162 0.06039,-0.0648208 0.062962,-0.0649487 1.30576413,-0.0649487 H 3.021751 v -0.1417791 c 0,-0.183629 0.061791,-0.273838 0.1871605,-0.2732368 0.052121,2.492e-4 0.1094595,0.010266 0.1274188,0.022257 0.060027,0.040081 0.1008911,0.15029029 0.1008911,0.2721018 v 0.12065677 h 1.2315729 c 1.1920044,0 1.2334799,0.001907 1.2909258,0.0593529 0.1225585,0.12255853 0.034974,0.35611744 -0.133544,0.35611744 H 5.7519851 V 2.1988183 3.5342585 h 0.074191 c 0.1007346,0 0.1928969,0.099252 0.1928969,0.2077352 0,0.049461 -0.026379,0.1154085 -0.059353,0.1483823 -0.056475,0.056475 -0.098921,0.059353 -0.8754554,0.059353 -0.4488564,0 -0.8161026,0.011084 -0.8161026,0.024631 0,0.013547 0.1616756,0.3907552 0.3592792,0.8382402 0.3886818,0.8801941 0.3956828,0.910987 0.2284592,1.0048474 -0.059249,0.033256 -0.1002643,0.03712 -0.1628288,0.015341 C 4.6182146,5.8067306 4.5662365,5.7064372 4.1975701,4.8767026 L 3.7856995,3.9497289 H 3.6114608 3.4372223 v 1.1244176 c 0,1.0282087 -0.00444,1.1295565 -0.051934,1.1844793 -0.058018,0.067098 -0.1479051,0.097824 -0.2151541,0.073545 z M 5.3365155,2.1988183 V 0.86337783 H 3.2294871 1.1224587 V 2.1988183 3.5342585 h 2.1070284 2.1070284 z"
       id="path412" /><path
       style="opacity:1;fill:none;stroke:#000000;stroke-width:0.3;stroke-linecap:round;stroke-linejoin:round;stroke-dasharray:none;stroke-opacity:1"
       d="M 2.3942766,1.6302497 1.0647089,0.82810688"
       id="path471"
       sodipodi:nodetypes="cc" /><path
       style="opacity:1;fill:none;stroke:#000000;stroke-width:0.3;stroke-linecap:round;stroke-linejoin:round;stroke-dasharray:none;stroke-opacity:1"
       d="M 3.9797554,1.6648993 5.4095813,0.78508835"
       id="path473"
       sodipodi:nodetypes="cc" /><path
       style="opacity:1;fill:none;stroke:#000000;stroke-width:0.3;stroke-linecap:round;stroke-linejoin:round;stroke-dasharray:none;stroke-opacity:1"
       d="M 1.0216903,3.6028026 2.3489652,2.9446084"
       id="path475"
       sodipodi:nodetypes="cc" /><path
       style="opacity:1;fill:none;stroke:#000000;stroke-width:0.3;stroke-linecap:round;stroke-linejoin:round;stroke-dasharray:none;stroke-opacity:1"
       d="M 5.6461834,3.6673305 3.928275,2.9705721"
       id="path477"
       sodipodi:nodetypes="cc" /><path
       style="opacity:1;fill:none;stroke:#000000;stroke-width:0.3;stroke-linecap:round;stroke-linejoin:round;stroke-dasharray:none;stroke-opacity:1"
       d="m 2.4106821,1.6045865 1.5513538,0.0076 -0.015208,0.015209"
       id="path1136" /><path
       style="opacity:1;fill:none;stroke:#000000;stroke-width:0.3;stroke-linecap:round;stroke-linejoin:round;stroke-dasharray:none;stroke-opacity:1"
       d="M 2.3574493,2.8593579 V 1.6730286"
       id="path1138" /><path
       style="opacity:1;fill:none;stroke:#000000;stroke-width:0.3;stroke-linecap:round;stroke-linejoin:round;stroke-dasharray:none;stroke-opacity:1"
       d="M 3.9696405,2.9430093 3.9848498,1.6654239"
       id="path1140" /><path
       style="opacity:1;fill:none;stroke:#000000;stroke-width:0.3;stroke-linecap:round;stroke-linejoin:round;stroke-dasharray:none;stroke-opacity:1"
       d="M 2.387868,2.9582186 3.9544312,2.9278"
       id="path1142" /><path
       style="opacity:1;fill:#888888;stroke:#000000;stroke-width:0.0460884;stroke-linecap:round;stroke-linejoin:round;stroke-dasharray:none;stroke-opacity:1;fill-opacity:1"
       d="M 4.0913394,3.7668744 C 3.892481,4.0448576 4.0308823,4.4162176 3.9847987,4.7340771 c -0.012825,2.6750892 -0.00615,5.3502199 -0.00786,8.0253289 0.019151,0.31534 0.4020525,0.347341 0.6022336,0.170793 C 5.879734,12.278124 7.1989949,11.652813 8.4879215,10.984098 8.7346762,10.768264 8.5733807,10.387986 8.6179689,10.099782 8.6050255,8.8561609 8.6243319,7.607504 8.5912298,6.3670132 8.500034,6.054718 8.1019731,5.9928932 7.8716535,5.8003642 6.7209531,5.1079119 5.5762847,4.4050855 4.4185831,3.7244804 4.2926481,3.68338 4.2030507,3.6957909 4.0913394,3.7668744 Z"
       id="path1293"
       transform="scale(0.26458333)" /><path
       style="opacity:1;fill:#cbcbcb;fill-opacity:1;stroke:#000000;stroke-width:0.0460884;stroke-linecap:round;stroke-linejoin:round;stroke-dasharray:none;stroke-opacity:1"
       d="M 10.414874,3.0019563 C 8.7940503,3.0169927 7.1708596,2.9775269 5.5515511,3.046732 5.2346188,3.083783 5.2176044,3.5411132 5.5011387,3.6462023 c 1.1382348,0.7243176 2.2978671,1.4221241 3.461149,2.1008869 0.6245211,0.07216 1.2669733,0.015469 1.8985063,0.037249 1.426858,0.0034 2.854303,0.012954 4.280774,0.020306 C 15.74789,5.5412239 16.293666,5.1474677 16.86757,4.8190923 17.567921,4.3806966 18.287655,3.9646 18.974246,3.509686 19.234763,3.3065912 18.963936,2.9179862 18.673052,3.0013999 c -2.752725,2.02e-4 -5.505452,-4.99e-4 -8.258178,5.564e-4 z"
       id="path1571"
       transform="scale(0.26458333)" /><path
       style="opacity:1;fill:#a9a9a9;fill-opacity:1;stroke:#000000;stroke-width:0.0460884;stroke-linecap:round;stroke-linejoin:round;stroke-dasharray:none;stroke-opacity:1"
       d="m 13.73677,11.387475 c -1.605831,0.02266 -3.214457,0.03793 -4.8182683,0.08305 -0.8654924,0.381727 -1.7080469,0.830437 -2.5568796,1.253699 -0.2221402,0.149149 -0.544625,0.209125 -0.6828882,0.449569 -0.1297093,0.272842 0.1810118,0.468081 0.425001,0.421099 3.9053951,0.04665 7.8115641,0.03218 11.7171371,0.0081 0.263217,-0.039 0.674841,0.104347 0.793507,-0.21772 0.109501,-0.319784 -0.298398,-0.421091 -0.517826,-0.514734 -1.182283,-0.487065 -2.36923,-0.968 -3.552153,-1.450302 -0.265704,-0.04668 -0.539217,-0.02809 -0.80763,-0.03271 z"
       id="path1780"
       transform="scale(0.26458333)" /><path
       style="opacity:1;fill:#e4e4e4;fill-opacity:1;stroke:#000000;stroke-width:0.0460884;stroke-linecap:round;stroke-linejoin:round;stroke-dasharray:none;stroke-opacity:1"
       d="M 9.3465294,6.4264237 C 9.1085986,6.671684 9.2657407,7.0509974 9.2204588,7.3571865 c 0.00804,1.0827116 -0.016076,2.1703047 0.012067,3.2499625 0.076646,0.373155 0.5357088,0.222357 0.8075502,0.251947 1.470351,-0.01799 2.941266,-0.04236 4.410644,-0.09522 0.378756,-0.104706 0.225919,-0.561615 0.266273,-0.8477217 0.01187,-1.0942539 0.05119,-2.1929619 0.04012,-3.2845147 -0.07174,-0.377102 -0.535505,-0.2273874 -0.807974,-0.2564965 -1.491528,0.00812 -2.987975,-0.01615 -4.4764509,0.012067 -0.042052,0.013073 -0.084104,0.026146 -0.1261564,0.039219 z"
       id="path1851"
       transform="scale(0.26458333)" /><path
       style="fill:#ffffff;stroke:#000000;stroke-width:0.0921769;stroke-linecap:round;stroke-linejoin:round;fill-opacity:1"
       d="m 19.9517,3.6627153 c -1.481244,0.9093941 -3.000124,1.7867031 -4.438623,2.7476657 -0.217599,0.6214681 -0.121028,1.3550139 -0.179942,2.0228511 0.01266,0.8606216 -0.08968,1.7499119 0.04449,2.5915269 0.683966,0.439153 1.547835,0.654121 2.301122,1.00761 0.807412,0.292712 1.575705,0.729972 2.40966,0.930512 0.501167,-0.170974 0.264427,-0.855345 0.344588,-1.255926 0.01415,-2.6150244 0.06317,-5.2348776 -0.04926,-7.8471949 C 20.330508,3.6684527 20.128515,3.5871193 19.9517,3.6627153 Z"
       id="path261"
       transform="scale(0.26458333)" /></g></svg>
